<svg width="245" height="31" viewBox="0 0 245 31" fill="none" xmlns="http://www.w3.org/2000/svg">
<path d="M8.69532 0.677301L8.66901 0.662598L8.64271 0.677301L0.528258 5.16375L0.501953 5.17826V5.20726V26.0447V26.0737L0.528258 26.0882L8.64271 30.5747L8.66901 30.5894L8.69532 30.5748L27.5249 20.2059L27.5512 20.1914V20.1624V11.1893V11.1603L27.5251 11.1458L8.69532 0.677301ZM26.1976 17.781L22.2981 15.577L26.1976 13.469V17.781ZM8.72162 2.30357L26.041 11.8872L20.7366 14.8201L8.72162 8.16936V2.30357ZM8.82559 9.68184L19.3837 15.5762L8.82559 21.4704V9.68184ZM3.46856 5.20625L7.36806 3.00251V7.31454L3.46856 5.20625ZM7.36806 22.2269L2.06364 25.1598V5.9924L7.36806 8.92529V22.2269ZM7.36806 28.1497L3.46856 25.946L7.36806 23.8377V28.1497ZM20.7366 16.3322L26.041 19.2651L8.72162 28.8487V22.9829L20.7366 16.3322Z" fill="white" stroke="white" stroke-width="0.450004"/>
<path d="M59.9045 25.2279C60.0495 24.4752 60.0495 23.2763 59.9045 22.5237H49.0061V6.49326C47.9917 6.3818 46.6872 6.3818 45.5859 6.49326V25.2279H59.9045Z" fill="white"/>
<path d="M63.5312 25.2279C64.5458 25.3393 65.966 25.3393 66.9516 25.2279V6.49326C65.966 6.3818 64.5458 6.3818 63.5312 6.49326V25.2279Z" fill="white"/>
<path d="M85.1173 22.5237C84.0448 22.6632 82.9143 22.7466 81.668 22.7466C78.1029 22.7466 75.2912 22.44 75.2912 19.7079V11.9297C75.2912 9.16976 78.1029 8.89091 81.668 8.89091C83.8998 8.89091 85.813 9.00237 88.0448 9.25325C88.1608 8.5006 88.1608 7.35766 88.0448 6.60479C85.552 6.21448 83.4072 6.10303 81.1463 6.10303C75.5232 6.10303 71.8711 7.35765 71.8711 11.2885V20.377C71.8711 24.3079 75.5232 25.5625 81.1463 25.5625C83.2912 25.5625 85.8709 25.2837 88.4505 24.6982V15.2753H81.639C81.494 16.0837 81.494 17.1989 81.639 17.9795H85.1173V22.5237Z" fill="white"/>
<path d="M107.539 25.2279C108.612 25.3393 109.945 25.3393 110.959 25.2279V6.49326C109.974 6.3818 108.554 6.3818 107.539 6.49326V14.1878H96.8146V6.49326C95.8003 6.3818 94.4668 6.3818 93.3945 6.49326V25.2279C94.4089 25.3393 95.8293 25.3393 96.8146 25.2279V17.0873H107.539V25.2279Z" fill="white"/>
<path d="M121.597 25.2283C122.611 25.3397 124.031 25.3397 125.017 25.2283V9.19784H132.089C132.205 8.4452 132.205 7.27427 132.089 6.49365H114.495C114.379 7.27427 114.379 8.4452 114.495 9.19784H121.597V25.2283Z" fill="white"/>
<path d="M153.133 25.2279C154.176 25.3393 155.394 25.3393 156.437 25.2279L162.9 6.49326C161.943 6.3818 160.524 6.3818 159.537 6.49326L154.784 20.9624L150.234 6.49326C149.277 6.3818 147.538 6.3818 146.523 6.49326L141.945 20.9345L137.25 6.49326C136.291 6.3818 134.727 6.3818 133.742 6.49326L140.177 25.2836C141.248 25.3393 142.494 25.3393 143.567 25.2279L148.349 10.8981L153.133 25.2279Z" fill="white"/>
<path d="M183.391 11.3722C183.391 7.44113 179.825 6.10303 174.464 6.10303C169.072 6.10303 165.506 7.44113 165.506 11.3722V20.2933C165.506 24.2522 169.072 25.5625 174.464 25.5625C179.825 25.5625 183.391 24.2522 183.391 20.2933V11.3722ZM179.97 19.6801C179.97 22.3563 177.478 22.7189 174.464 22.7189C171.419 22.7189 168.927 22.3563 168.927 19.6801V11.9577C168.927 9.22549 171.419 8.89091 174.464 8.89091C177.478 8.89091 179.97 9.22549 179.97 11.9577V19.6801Z" fill="white"/>
<path d="M205.116 11.4003C205.116 7.77603 202.13 6.49365 197.346 6.49365H188.332V25.2283C189.377 25.3397 190.71 25.3397 191.753 25.2283V18.2307H197.376C199.144 20.4611 200.594 22.9701 201.753 25.2283C202.565 25.3397 204.594 25.3397 205.406 25.2283C204.216 22.8587 202.768 20.21 200.912 17.9241C203.549 17.3664 205.116 16.0282 205.116 13.4912V11.4003ZM201.695 12.9615C201.695 15.2756 199.52 15.4985 196.969 15.4985H191.753V9.30952H196.969C199.52 9.30952 201.695 9.53243 201.695 11.9857V12.9615Z" fill="white"/>
<path d="M223.263 25.2279C224.421 25.3393 226.074 25.3393 227.234 25.2279L219.263 15.749L226.799 6.49326C225.667 6.3818 224.189 6.3818 223.06 6.49326L216.74 14.3272L213.321 14.5781V6.49326C212.306 6.3818 210.971 6.3818 209.9 6.49326V25.2279C210.915 25.3393 212.334 25.3393 213.321 25.2279V17.5334L216.422 17.3102L223.263 25.2279Z" fill="white"/>
<path d="M245.001 19.1504C245.001 16.474 243.523 15.7491 240.886 15.1079L236.333 14.0207C233.726 13.3795 232.943 13.1006 232.943 11.846V11.0096C232.943 9.1418 235.145 8.86293 238.045 8.86293C240.364 8.86293 242.19 8.97461 244.828 9.3092C244.973 8.55633 244.973 7.41337 244.828 6.66051C242.277 6.21447 240.275 6.10303 237.958 6.10303C232.971 6.10303 229.552 7.3017 229.552 10.5916V12.32C229.552 14.857 231.116 15.8048 233.667 16.4182L238.566 17.6169C240.972 18.2024 241.61 18.3418 241.61 19.5127V20.6C241.61 22.4958 239.405 22.7746 236.712 22.7746C234.479 22.7746 232.276 22.6352 229.611 22.3563C229.466 23.137 229.466 24.3636 229.611 25.1165C231.986 25.4511 234.596 25.5625 236.768 25.5625C241.928 25.5625 245.001 24.3359 245.001 21.074V19.1504Z" fill="white"/>
</svg>
